<svg width="720.000000" height="720.000000" viewBox="0 0 720 720" fill="none" xmlns="http://www.w3.org/2000/svg" xmlns:xlink="http://www.w3.org/1999/xlink">
	<desc>
			Created with Pixso.
	</desc>
	<defs>
		<clipPath id="clip2_4">
			<rect id="logo" width="720.000000" height="720.000000" fill="white" fill-opacity="0"/>
		</clipPath>
	</defs>
	<g clip-path="url(#clip2_4)">
		<path id="path" d="M0 0C237.6 0 475.2 0 720 0C720 237.6 720 475.2 720 720C482.4 720 244.8 720 0 720C0 482.4 0 244.8 0 0Z" fill="#FFFFFF" fill-opacity="1.000000" fill-rule="nonzero"/>
		<path id="path" d="M407.98 82.9C428.75 81.97 449.88 85.02 470 90.08C472.34 90.69 474.67 91.34 477 92C477.99 92.27 477.99 92.27 479.01 92.56C498.49 98.18 517.43 107.69 534.43 118.68C535.59 119.44 536.74 120.19 537.89 120.95C540.46 122.64 543.05 124.27 545.68 125.87C548.24 127.51 549.96 128.84 552 131C552 131.66 552 132.32 552 133C552.65 133.18 553.32 133.37 554 133.56C557.4 135.19 559.76 137.14 562.55 139.66C567.29 144.18 571.9 148.83 576.51 153.49C579.37 156.38 582.23 159.26 585.17 162.07C590.12 166.82 594.25 171.79 598.17 177.42C600.02 180.03 601.98 182.51 604 185C616.82 201.56 627.18 221.6 634.62 241.14C635.79 244.41 636.9 247.7 638 251C638.46 252.19 638.93 253.39 639.4 254.62C644.61 268.39 648.65 283.48 651 298C651.13 298.8 651.26 299.6 651.4 300.43C655.82 328.2 656.38 358.66 652.81 386.56C652.3 390.06 651.68 393.52 651 397C650.81 397.95 650.63 398.9 650.44 399.89C649.13 406.63 647.63 413.32 646 420C645.71 421.16 645.71 421.16 645.43 422.34C637.64 453.82 624.02 483.27 607.59 511.09C604.31 516.58 600.81 521.86 597 527C596.5 527.68 596 528.36 595.48 529.06C594 531.05 592.5 533.02 591 535C590.5 535.66 590 536.32 589.49 537C574.86 556.19 557.95 576.65 538.44 590.99C537.96 591.32 537.49 591.65 537 592C536.34 592 535.68 592 535 592C535 592.65 535 593.32 535 594C534.34 594 533.68 594 533 594C532.67 594.99 532.34 595.98 532 597C528.34 599.68 524.67 602.34 521 605C520.32 605.48 519.65 605.97 518.95 606.47C516.76 608.05 514.57 609.62 512.37 611.18C511.68 611.68 510.99 612.18 510.28 612.69C505.99 615.74 501.61 618.41 496.98 620.92C494.77 622.12 492.63 623.41 490.5 624.75C468.43 638.06 444.52 648.24 419.62 654.9C412.12 656.77 404.57 658.42 397 660C396.22 660.16 395.44 660.33 394.64 660.51C367.56 666.33 338.69 666.28 311.2 663.99C293.62 662.32 275.91 659.1 259 654C257.83 653.66 257.83 653.66 256.64 653.31C252.05 651.97 247.56 650.53 243.1 648.8C241.58 648.22 240.05 647.67 238.51 647.13C231.1 644.54 224.08 641.35 217 638C215.61 637.37 214.23 636.74 212.85 636.11C202.63 631.45 193.26 626.17 183.91 619.93C181.5 618.33 179.08 616.77 176.62 615.25C175.59 614.6 175.59 614.6 174.53 613.95C174.03 613.63 173.52 613.32 173 613C173 612.34 173 611.68 173 611C172.27 610.75 171.55 610.5 170.81 610.24C166.62 608.39 163.51 605.54 160.02 602.61C147.98 592.19 136.22 581.23 126 569C125.49 568.39 124.98 567.79 124.46 567.18C123.3 565.79 122.15 564.39 121 563C120.67 560.69 120.34 558.38 120 556C120.99 553.69 121.98 551.38 123 549C124.98 548.01 126.96 547.02 129 546C131.64 546.33 134.28 546.65 137 547C138.21 547.98 139.42 548.99 140.62 550C141.29 550.55 141.97 551.11 142.66 551.68C144.65 553.65 146.18 555.53 147.82 557.78C150.95 562.04 154.43 565.78 158.18 569.5C159.16 570.47 159.16 570.47 160.15 571.46C165.38 576.59 170.84 580.99 177 585C177 585.65 177 586.32 177 587C177.66 587.2 178.32 587.41 179 587.62C181.58 588.8 183.29 589.9 185.5 591.62C195.31 599.18 206.42 605.02 217.23 611.01C218.76 611.87 220.28 612.73 221.8 613.6C222.57 614.04 223.33 614.48 224.12 614.93C225.05 615.47 225.05 615.47 226 616.02C228.59 617.29 231.25 618.1 234 619C237.92 620.41 241.83 621.88 245.74 623.34C250.43 625.08 255.13 626.73 259.88 628.27C261.41 628.79 262.92 629.38 264.42 629.99C279.25 635.77 296.82 637.87 312.57 639.54C316.72 639.83 320.84 639.96 325 640C326.71 640.02 326.71 640.02 328.46 640.04C357.52 640.34 384.76 638.21 413 631C414.43 630.64 415.87 630.28 417.3 629.93C424.45 628.12 431.22 625.9 438 623C439.56 622.39 441.12 621.78 442.68 621.18C453.45 616.85 463.7 611.78 473.71 605.9C476.73 604.15 479.78 602.5 482.87 600.87C486.86 598.72 490.43 596.34 493.95 593.49C496 592 496 592 499.18 590.23C503.72 587.69 507.73 584.52 511.81 581.31C512.6 580.69 513.4 580.07 514.21 579.42C519.28 575.43 524.18 571.32 528.92 566.93C530.86 565.12 532.85 563.4 534.87 561.68C543.32 554.29 551 546.3 557.98 537.51C559.76 535.29 561.59 533.17 563.5 531.06C570.08 523.6 575.9 515.53 581 507C581.65 507 582.32 507 583 507C583.25 506.13 583.51 505.26 583.77 504.36C585.03 500.89 586.61 498.21 588.62 495.12C592.96 488.3 596.55 481.17 600.06 473.9C600.68 472.65 601.3 471.4 601.94 470.17C605.04 464.17 607.55 457.95 610.06 451.68C610.49 450.62 610.93 449.55 611.37 448.46C613.76 442.51 615.79 436.61 617.37 430.4C617.98 428.05 618.71 425.79 619.5 423.5C625.38 406.16 628.58 387.94 629.28 369.66C630.02 344.69 630.39 319.5 625 295C624.71 293.52 624.43 292.05 624.15 290.58C621.45 277.05 616.6 263.96 612 251C611.7 250.17 611.41 249.34 611.11 248.49C604.76 230.97 595.01 214 584 199C578.29 191.42 572.38 184.01 566 177C566 176.34 566 175.68 566 175C565.34 175 564.68 175 564 175C564 174.34 564 173.68 564 173C563.34 173 562.68 173 562 173C561.01 172.01 560.02 171.02 559 170C559 169.34 559 168.68 559 168C558.45 167.77 557.91 167.55 557.35 167.32C554.28 165.59 551.9 163.28 549.37 160.87C544.12 155.96 538.67 151.41 533 147C532.18 146.32 531.37 145.65 530.54 144.95C528.03 143.02 525.56 141.58 522.75 140.12C519.23 138.3 515.97 136.32 512.71 134.08C508.24 131.07 503.67 128.73 498.75 126.56C497.89 126.18 497.04 125.8 496.16 125.41C478.85 117.88 460.4 112.08 441.63 109.7C434.02 108.93 426.43 108.84 418.78 108.87C416.63 108.87 414.48 108.87 412.33 108.86C391.84 108.85 373.33 112.17 353.68 117.98C340.45 122.3 327.67 128.95 316.15 136.73C309.18 141.7 303.07 147.55 297 153.56C296.21 154.34 295.42 155.12 294.6 155.92C289.39 161.21 285.06 166.79 281 173C280.34 173 279.68 173 279 173C279 173.66 279 174.32 279 175C275.04 176.98 275.04 176.98 271 179C268.69 178.67 266.38 178.34 264 178C261.52 175.03 261.52 175.03 259 172C258.67 169.69 258.34 167.38 258 165C259.93 160.3 262.08 156.11 265.31 152.16C267.84 149.41 270.41 146.7 273 144C274.17 142.65 275.34 141.3 276.5 139.93C283.32 132.12 290.6 125.09 299 119C300.06 118.19 300.06 118.19 301.15 117.36C313.41 108.35 327.29 101.04 341.59 95.83C361.29 88.96 381.86 84.17 402.77 83.09C404.51 83.04 406.24 82.98 407.98 82.9Z" fill="#0667D5" fill-opacity="1.000000" fill-rule="nonzero"/>
		<path id="path" d="M390.75 239.82C393.95 239.81 397.16 239.8 400.36 239.79C404.16 239.77 407.95 239.76 411.75 239.77C413.15 239.77 414.55 239.76 415.95 239.75C417.87 239.74 419.78 239.75 421.7 239.75C423.32 239.75 423.32 239.75 424.96 239.75C428.24 240.02 430.93 240.84 434 242C433.23 244.43 432.28 246.57 430.84 248.69C429.25 250.81 427.62 252.9 426 255C421.21 261.3 416.51 267.66 411.93 274.12C409.1 278.12 406.23 282.02 403.12 285.81C399.63 290.08 396.46 294.53 393.31 299.06C388.68 305.69 383.87 312.14 378.93 318.54C374.95 323.7 371.1 328.95 367.31 334.25C362.02 341.62 356.59 348.85 351 356C349.12 358.4 347.24 360.8 345.36 363.21C344.09 364.84 342.82 366.46 341.55 368.08C340.98 368.82 340.4 369.56 339.8 370.32C339.03 371.31 339.03 371.31 338.24 372.32C336.93 373.98 336.93 373.98 336 376C336.79 376 337.58 376 338.39 376.01C357.62 376.11 376.85 376.22 396.08 376.33C405.38 376.39 414.67 376.44 423.97 376.49C432.08 376.54 440.18 376.58 448.28 376.63C452.57 376.66 456.87 376.68 461.16 376.7C465.2 376.72 469.23 376.75 473.27 376.78C474.75 376.79 476.24 376.79 477.72 376.8C479.74 376.81 481.77 376.82 483.79 376.84C485.49 376.85 485.49 376.85 487.22 376.86C490 377 490 377 493 378C492.67 379.65 492.34 381.3 492 383C491.43 383.61 490.86 384.23 490.27 384.87C485.24 390.39 480.48 396.02 476 402C475.34 402 474.68 402 474 402C473.67 402.99 473.34 403.98 473 405C472.34 405 471.68 405 471 405C470.64 406.09 470.64 406.09 470.28 407.2C469 410 469 410 466.9 412.42C466.11 413.19 465.31 413.95 464.5 414.75C463.7 415.52 462.91 416.3 462.09 417.1C460 419 460 419 458 420C404.21 420 350.42 420 295 420C294.34 419.67 293.68 419.34 293 419C292 416 292 416 291.88 413.24C291.88 412.13 291.88 411.02 291.88 409.87C291.88 408.61 291.88 407.35 291.88 406.05C291.89 404.67 291.89 403.3 291.9 401.92C291.9 400.51 291.9 399.1 291.9 397.7C291.91 393.99 291.92 390.29 291.93 386.59C291.94 382.8 291.94 379.02 291.95 375.24C291.96 367.83 291.97 360.41 292 353C294.58 348.37 297.02 344.57 300.68 340.68C303.69 337.59 303.69 337.59 306 334C306.66 334 307.32 334 308 334C308.23 333.28 308.46 332.56 308.7 331.82C310 329 310 329 312.13 326.42C312.97 325.54 313.82 324.65 314.68 323.75C318.44 319.72 321.94 315.65 325.26 311.26C327.87 307.84 330.59 304.51 333.3 301.16C335.11 298.9 335.11 298.9 337 296C337.66 296 338.32 296 339 296C339.22 295.3 339.44 294.6 339.68 293.89C341.3 290.33 343.58 287.61 346.12 284.68C346.59 284.13 347.06 283.58 347.54 283.02C348.69 281.67 349.84 280.33 351 279C350.3 278.99 349.61 278.97 348.89 278.96C342.34 278.87 335.79 278.76 329.25 278.66C325.88 278.6 322.51 278.55 319.15 278.5C315.28 278.44 311.41 278.38 307.54 278.31C306.33 278.29 305.12 278.28 303.87 278.26C302.75 278.24 301.63 278.22 300.48 278.2C299.49 278.19 298.5 278.17 297.48 278.15C295 278 295 278 292 277C290.79 265.28 290.38 253.68 292 242C292.32 241.67 292.66 241.34 293 241C325.58 240.35 358.16 239.88 390.75 239.82Z" fill="#0469D8" fill-opacity="1.000000" fill-rule="nonzero"/>
		<path id="path" d="M87 438C204.15 438 321.29 438 442 438C442.66 438.33 443.32 438.66 444 439C443.94 441.59 443.71 443.51 443 446C440.91 450.15 438.48 454.07 436 458C435.51 458.79 435.02 459.59 434.52 460.42C430.19 467.24 424.99 473.3 419.06 478.78C414.43 482.54 409.34 484.78 403.83 487.02C400.44 488.19 397.24 488.93 393.66 489.13C392.85 489.13 392.04 489.13 391.2 489.13C390.26 489.14 389.32 489.15 388.35 489.15C386.81 489.15 386.81 489.15 385.23 489.15C384.14 489.16 383.04 489.16 381.91 489.17C378.22 489.18 374.53 489.19 370.85 489.2C368.2 489.21 365.56 489.22 362.92 489.23C356.48 489.26 350.03 489.27 343.59 489.29C336.06 489.31 328.52 489.34 320.99 489.37C307.5 489.41 294.01 489.46 280.53 489.5C267.52 489.54 254.51 489.58 241.5 489.62C240.71 489.63 239.91 489.63 239.09 489.63C235.88 489.64 232.68 489.65 229.47 489.66C214.74 489.71 200.01 489.76 185.27 489.81C184.53 489.81 183.8 489.82 183.04 489.82C117.06 490.03 117.06 490.03 86 490C85.01 489.34 84.02 488.68 83 488C83 472.16 83 456.32 83 440C84.32 439.34 85.64 438.68 87 438Z" fill="#046BDB" fill-opacity="1.000000" fill-rule="nonzero"/>
		<path id="path" d="M497.44 278.73C499.89 278.75 502.34 278.73 504.78 278.72C512.41 278.71 519.62 278.81 527 281C527.88 281.26 528.76 281.52 529.68 281.78C535.46 283.99 540.34 286.91 545.26 290.67C550.02 294.71 554.22 299.01 558 304C560.29 307.88 562.23 311.84 564 316C564.33 316.77 564.66 317.55 565 318.35C566.8 323.13 567.48 327.93 568 333C568.36 340.19 568.28 347.4 568.26 354.6C568.26 356.7 568.26 358.8 568.27 360.9C568.27 365.28 568.27 369.66 568.26 374.04C568.24 379.61 568.25 385.18 568.26 390.75C568.27 395.08 568.27 399.41 568.26 403.74C568.26 405.79 568.26 407.84 568.27 409.89C568.32 436.49 568.32 436.49 565.12 448.21C563.36 453.56 560.96 458.62 557.94 463.38C553.9 468.81 549.22 473.69 544 478C540.47 480.39 536.89 482.28 533 484C532.14 484.38 531.28 484.77 530.4 485.17C525.07 487.44 519.76 489.3 514 490C507.93 490.38 501.95 490.48 495.94 489.5C490.56 488.15 485.41 486.23 480.53 483.61C475.4 480.34 471.08 476.49 467 472C462.27 465.77 458.4 459.02 455 452C455.33 450.35 455.66 448.7 456 447C460.28 446.92 464.57 446.87 468.86 446.83C470.31 446.82 471.77 446.8 473.22 446.77C475.33 446.73 477.43 446.72 479.53 446.7C480.79 446.69 482.05 446.67 483.36 446.65C487 447 487 447 488.92 447.67C490.62 448.42 492.31 449.2 494 450C497.71 450.52 501.27 450.41 505 450C507.85 449.22 510.29 448.22 513 447C513.82 445.92 514.63 444.83 515.43 443.75C515.89 443.14 516.34 442.54 516.8 441.92C518.05 440.08 518.05 440.08 518.56 438.15C519.02 435.89 519.13 433.84 519.14 431.54C519.14 430.65 519.15 429.76 519.15 428.85C519.15 427.88 519.15 426.92 519.16 425.92C519.16 424.9 519.17 423.88 519.17 422.82C519.19 419.44 519.19 416.05 519.2 412.66C519.2 410.31 519.21 407.96 519.21 405.6C519.23 400.66 519.23 395.73 519.24 390.79C519.24 384.47 519.27 378.15 519.29 371.83C519.31 366.96 519.32 362.1 519.32 357.24C519.32 354.9 519.33 352.57 519.34 350.24C519.36 346.98 519.36 343.72 519.35 340.46C519.36 339.5 519.37 338.54 519.38 337.55C519.36 335 519.3 332.53 519 330C518.2 327.47 517.22 325.36 516 323C514.36 321.62 512.69 320.29 511 319C508.03 317.86 508.03 317.86 504.88 317.83C501.47 317.8 498.06 317.76 494.65 317.76C492.46 317.75 490.28 317.71 488.1 317.68C481.97 317.64 476.12 317.67 470.18 319.39C467.41 320.35 465.21 321.43 462.62 322.87C459.93 325.04 458.02 327.2 456 330C455.42 330.76 454.84 331.52 454.25 332.31C453.83 332.86 453.42 333.42 453 334C450 335 450 335 447.73 335.11C446.86 335.1 446 335.1 445.11 335.09C444.17 335.09 443.23 335.09 442.27 335.08C440.8 335.07 440.8 335.07 439.31 335.06C437.83 335.05 437.83 335.05 436.31 335.04C433.87 335.03 431.43 335.02 429 335C428.34 334.67 427.68 334.34 427 334C427.23 328.08 427.93 322.54 429.68 316.87C431.36 312.23 433.35 308.22 436.23 304.22C441.18 297.98 446.28 291.87 452.86 287.3C457.11 284.7 461.28 282.62 466 281C476.4 278.89 486.86 278.68 497.44 278.73Z" fill="#0565D6" fill-opacity="1.000000" fill-rule="nonzero"/>
		<path id="path" d="M191 240C197.02 239.9 203.05 239.82 209.08 239.78C211.13 239.76 213.17 239.73 215.22 239.69C233.13 239.4 233.13 239.4 239.32 240.9C242.28 241.82 245.14 242.79 248 244C248 244.66 248 245.32 248 246C249.65 246.33 251.3 246.66 253 247C257.21 250.78 261.41 254.6 265 259C267.85 264.05 269.74 269.33 271 275C271.21 277.91 271.18 280.82 271.18 283.75C271.2 284.52 271.21 285.29 271.22 286.09C271.23 290.58 270.9 294.71 269.68 299.04C267.36 305.67 263.53 311.66 259.87 317.62C259.15 318.8 259.15 318.8 258.41 320C254.34 326.57 249.97 332.87 245.39 339.1C243.23 342.04 241.1 344.99 238.96 347.94C237.85 349.47 236.75 350.99 235.64 352.52C232.53 356.79 229.55 361.12 226.67 365.55C224.23 369.11 221.59 372.54 219 376C252.66 376.49 252.66 376.49 287 377C287.66 377.33 288.32 377.66 289 378C288.7 381.14 288.7 381.14 288 385C286.57 387.82 286.57 387.82 284.68 390.68C283.98 391.78 283.27 392.88 282.54 394.02C282.14 394.63 281.74 395.25 281.33 395.89C278.64 400.14 276.08 404.48 273.5 408.81C272.44 410.56 271.39 412.32 270.34 414.08C269.56 415.38 268.78 416.69 268 418C266.01 418.99 266.01 418.99 264 420C223.08 420 182.16 420 140 420C139.34 419.67 138.67 419.34 138 419C138.33 417.02 138.66 415.04 139 413C139.42 412.36 139.85 411.73 140.29 411.07C145.29 403.61 150.2 396.1 155.07 388.56C158.94 382.6 162.86 376.68 166.81 370.78C169.1 367.34 171.39 363.91 173.68 360.48C174.7 358.94 175.72 357.41 176.74 355.88C177.26 355.1 177.77 354.33 178.3 353.53C179.86 351.2 181.42 348.86 182.98 346.52C183.49 345.76 183.99 345 184.52 344.21C185.53 342.69 186.55 341.16 187.57 339.64C190 335.99 192.43 332.34 194.86 328.69C195.31 328.01 195.76 327.33 196.23 326.63C197.07 325.36 197.91 324.1 198.75 322.83C200.93 319.56 203.15 316.32 205.43 313.12C208.69 308.5 211.79 303.79 214.87 299.06C215.36 298.31 215.85 297.56 216.35 296.79C216.81 296.09 217.27 295.38 217.74 294.66C218.15 294.02 218.56 293.39 218.98 292.74C220.15 290.86 220.15 290.86 221 288C221.06 286.1 221.08 284.2 221.06 282.31C221.05 281.31 221.04 280.32 221.03 279.3C221.02 278.54 221.01 277.78 221 277C213.7 268.09 205.24 260.6 196.08 253.67C192.79 251.03 189.89 248.05 187 245C187.66 243.68 188.32 242.36 189 241C189.66 240.67 190.32 240.34 191 240Z" fill="#056AD9" fill-opacity="1.000000" fill-rule="nonzero"/>
		<path id="path" d="M85 240C88.17 239.72 90.84 239.66 94 240C99.77 241.53 105.28 243.57 110.58 246.35C115.59 249.49 119.9 253.38 123.99 257.65C127.59 261.86 129.8 266.35 132.07 271.36C133.67 275.3 134.88 278.96 135.36 283.2C135.48 286.77 135.49 290.33 135.45 293.91C135.45 295.27 135.45 296.63 135.45 298C135.45 301.66 135.43 305.32 135.4 308.98C135.38 312.82 135.37 316.65 135.37 320.49C135.36 327.74 135.32 335 135.28 342.25C135.24 350.51 135.22 358.78 135.2 367.04C135.16 384.03 135.08 401.01 135 418C133.02 418.99 133.02 418.99 131 420C116.15 420 101.3 420 86 420C85.01 419.01 84.02 418.02 83 417C83 359.91 83 302.82 83 244C83.66 242.68 84.32 241.36 85 240Z" fill="#056BDB" fill-opacity="1.000000" fill-rule="nonzero"/>
		<path id="path" d="M516 241C531.84 241.18 531.84 241.18 537.07 242.53C540.52 243.73 543.79 245.26 547 247C547 247.66 547 248.32 547 249C548.02 249.27 548.02 249.27 549.06 249.56C551.69 250.84 553.31 251.93 555.43 253.87C558.22 256.82 560.29 259.87 562.25 263.43C565.11 269.54 566.44 275.55 567.65 282.14C568.03 286.37 567.67 289.82 567 294C565.34 294 563.7 294 562 294C561.42 293.35 560.85 292.71 560.26 292.05C551.14 281.93 541.47 272.36 531.81 262.75C530.08 261.02 528.34 259.29 526.61 257.56C522.41 253.37 518.2 249.18 514 245C514 244.01 514 243.02 514 242C514.65 241.67 515.32 241.34 516 241Z" fill="#0664D1" fill-opacity="1.000000" fill-rule="nonzero"/>
	</g>
</svg>
